<mxfile host="app.diagrams.net" agent="Mozilla/5.0 (X11; Linux x86_64; rv:139.0) Gecko/20100101 Firefox/139.0" version="26.2.14">
  <diagram name="Page-1" id="dNI71mmLtJd8nYW-7yQu">
    <mxGraphModel dx="883" dy="1639" grid="1" gridSize="10" guides="1" tooltips="1" connect="1" arrows="1" fold="1" page="1" pageScale="1" pageWidth="850" pageHeight="1100" math="0" shadow="0">
      <root>
        <mxCell id="0" />
        <mxCell id="1" parent="0" />
        <mxCell id="aWx8BJQIt_AAFOSle3Xr-22" value="" style="shape=table;startSize=0;container=1;collapsible=0;childLayout=tableLayout;" parent="1" vertex="1">
          <mxGeometry x="70" y="-50" width="650" height="670.0000000000018" as="geometry" />
        </mxCell>
        <mxCell id="aWx8BJQIt_AAFOSle3Xr-23" value="" style="shape=tableRow;horizontal=0;startSize=0;swimlaneHead=0;swimlaneBody=0;strokeColor=inherit;top=0;left=0;bottom=0;right=0;collapsible=0;dropTarget=0;fillColor=none;points=[[0,0.5],[1,0.5]];portConstraint=eastwest;" parent="aWx8BJQIt_AAFOSle3Xr-22" vertex="1">
          <mxGeometry width="650" height="40" as="geometry" />
        </mxCell>
        <mxCell id="aWx8BJQIt_AAFOSle3Xr-24" value="Use Case ID" style="shape=partialRectangle;html=1;whiteSpace=wrap;connectable=0;strokeColor=inherit;overflow=hidden;fillColor=none;top=0;left=0;bottom=0;right=0;pointerEvents=1;fontStyle=1" parent="aWx8BJQIt_AAFOSle3Xr-23" vertex="1">
          <mxGeometry width="110" height="40" as="geometry">
            <mxRectangle width="110" height="40" as="alternateBounds" />
          </mxGeometry>
        </mxCell>
        <mxCell id="aWx8BJQIt_AAFOSle3Xr-25" value="1" style="shape=partialRectangle;html=1;whiteSpace=wrap;connectable=0;strokeColor=inherit;overflow=hidden;fillColor=none;top=0;left=0;bottom=0;right=0;pointerEvents=1;" parent="aWx8BJQIt_AAFOSle3Xr-23" vertex="1">
          <mxGeometry x="110" width="70" height="40" as="geometry">
            <mxRectangle width="70" height="40" as="alternateBounds" />
          </mxGeometry>
        </mxCell>
        <mxCell id="aWx8BJQIt_AAFOSle3Xr-26" value="Use Case name" style="shape=partialRectangle;html=1;whiteSpace=wrap;connectable=0;strokeColor=inherit;overflow=hidden;fillColor=none;top=0;left=0;bottom=0;right=0;pointerEvents=1;fontStyle=1" parent="aWx8BJQIt_AAFOSle3Xr-23" vertex="1">
          <mxGeometry x="180" width="100" height="40" as="geometry">
            <mxRectangle width="100" height="40" as="alternateBounds" />
          </mxGeometry>
        </mxCell>
        <mxCell id="aWx8BJQIt_AAFOSle3Xr-27" value="Login" style="shape=partialRectangle;html=1;whiteSpace=wrap;connectable=0;strokeColor=inherit;overflow=hidden;fillColor=none;top=0;left=0;bottom=0;right=0;pointerEvents=1;" parent="aWx8BJQIt_AAFOSle3Xr-23" vertex="1">
          <mxGeometry x="280" width="370" height="40" as="geometry">
            <mxRectangle width="370" height="40" as="alternateBounds" />
          </mxGeometry>
        </mxCell>
        <mxCell id="4jwVBDrUsGqLuniRPu5o-11" style="shape=tableRow;horizontal=0;startSize=0;swimlaneHead=0;swimlaneBody=0;strokeColor=inherit;top=0;left=0;bottom=0;right=0;collapsible=0;dropTarget=0;fillColor=none;points=[[0,0.5],[1,0.5]];portConstraint=eastwest;align=left;" vertex="1" parent="aWx8BJQIt_AAFOSle3Xr-22">
          <mxGeometry y="40" width="650" height="40" as="geometry" />
        </mxCell>
        <mxCell id="4jwVBDrUsGqLuniRPu5o-12" value="Description" style="shape=partialRectangle;html=1;whiteSpace=wrap;connectable=0;strokeColor=inherit;overflow=hidden;fillColor=none;top=0;left=0;bottom=0;right=0;pointerEvents=1;fontStyle=1" vertex="1" parent="4jwVBDrUsGqLuniRPu5o-11">
          <mxGeometry width="110" height="40" as="geometry">
            <mxRectangle width="110" height="40" as="alternateBounds" />
          </mxGeometry>
        </mxCell>
        <mxCell id="4jwVBDrUsGqLuniRPu5o-13" value="&lt;div align=&quot;center&quot;&gt;Authenticate to access personal content and privileges&lt;/div&gt;" style="shape=partialRectangle;html=1;whiteSpace=wrap;connectable=0;strokeColor=inherit;overflow=hidden;fillColor=none;top=0;left=0;bottom=0;right=0;pointerEvents=1;rowspan=1;colspan=3;align=center;spacingLeft=0;spacing=2;spacingRight=0;spacingBottom=0;spacingTop=0;" vertex="1" parent="4jwVBDrUsGqLuniRPu5o-11">
          <mxGeometry x="110" width="540" height="40" as="geometry">
            <mxRectangle width="70" height="40" as="alternateBounds" />
          </mxGeometry>
        </mxCell>
        <mxCell id="4jwVBDrUsGqLuniRPu5o-14" style="shape=partialRectangle;html=1;whiteSpace=wrap;connectable=0;strokeColor=inherit;overflow=hidden;fillColor=none;top=0;left=0;bottom=0;right=0;pointerEvents=1;" vertex="1" visible="0" parent="4jwVBDrUsGqLuniRPu5o-11">
          <mxGeometry x="180" width="100" height="40" as="geometry">
            <mxRectangle width="100" height="40" as="alternateBounds" />
          </mxGeometry>
        </mxCell>
        <mxCell id="4jwVBDrUsGqLuniRPu5o-15" style="shape=partialRectangle;html=1;whiteSpace=wrap;connectable=0;strokeColor=inherit;overflow=hidden;fillColor=none;top=0;left=0;bottom=0;right=0;pointerEvents=1;" vertex="1" visible="0" parent="4jwVBDrUsGqLuniRPu5o-11">
          <mxGeometry x="280" width="370" height="40" as="geometry">
            <mxRectangle width="370" height="40" as="alternateBounds" />
          </mxGeometry>
        </mxCell>
        <mxCell id="aWx8BJQIt_AAFOSle3Xr-28" value="" style="shape=tableRow;horizontal=0;startSize=0;swimlaneHead=0;swimlaneBody=0;strokeColor=inherit;top=0;left=0;bottom=0;right=0;collapsible=0;dropTarget=0;fillColor=none;points=[[0,0.5],[1,0.5]];portConstraint=eastwest;" parent="aWx8BJQIt_AAFOSle3Xr-22" vertex="1">
          <mxGeometry y="80" width="650" height="40" as="geometry" />
        </mxCell>
        <mxCell id="aWx8BJQIt_AAFOSle3Xr-29" value="Actor" style="shape=partialRectangle;html=1;whiteSpace=wrap;connectable=0;strokeColor=inherit;overflow=hidden;fillColor=none;top=0;left=0;bottom=0;right=0;pointerEvents=1;fontStyle=1" parent="aWx8BJQIt_AAFOSle3Xr-28" vertex="1">
          <mxGeometry width="110" height="40" as="geometry">
            <mxRectangle width="110" height="40" as="alternateBounds" />
          </mxGeometry>
        </mxCell>
        <mxCell id="aWx8BJQIt_AAFOSle3Xr-30" value="&lt;div align=&quot;center&quot;&gt;User&lt;/div&gt;" style="shape=partialRectangle;html=1;whiteSpace=wrap;connectable=0;strokeColor=inherit;overflow=hidden;fillColor=none;top=0;left=0;bottom=0;right=0;pointerEvents=1;rowspan=1;colspan=3;align=center;spacingLeft=0;spacing=2;spacingRight=0;spacingBottom=0;spacingTop=0;" parent="aWx8BJQIt_AAFOSle3Xr-28" vertex="1">
          <mxGeometry x="110" width="540" height="40" as="geometry">
            <mxRectangle width="70" height="40" as="alternateBounds" />
          </mxGeometry>
        </mxCell>
        <mxCell id="aWx8BJQIt_AAFOSle3Xr-31" value="" style="shape=partialRectangle;html=1;whiteSpace=wrap;connectable=0;strokeColor=inherit;overflow=hidden;fillColor=none;top=0;left=0;bottom=0;right=0;pointerEvents=1;" parent="aWx8BJQIt_AAFOSle3Xr-28" vertex="1" visible="0">
          <mxGeometry x="180" width="100" height="40" as="geometry">
            <mxRectangle width="100" height="40" as="alternateBounds" />
          </mxGeometry>
        </mxCell>
        <mxCell id="aWx8BJQIt_AAFOSle3Xr-32" value="" style="shape=partialRectangle;html=1;whiteSpace=wrap;connectable=0;strokeColor=inherit;overflow=hidden;fillColor=none;top=0;left=0;bottom=0;right=0;pointerEvents=1;" parent="aWx8BJQIt_AAFOSle3Xr-28" vertex="1" visible="0">
          <mxGeometry x="280" width="370" height="40" as="geometry">
            <mxRectangle width="370" height="40" as="alternateBounds" />
          </mxGeometry>
        </mxCell>
        <mxCell id="4jwVBDrUsGqLuniRPu5o-21" style="shape=tableRow;horizontal=0;startSize=0;swimlaneHead=0;swimlaneBody=0;strokeColor=inherit;top=0;left=0;bottom=0;right=0;collapsible=0;dropTarget=0;fillColor=none;points=[[0,0.5],[1,0.5]];portConstraint=eastwest;" vertex="1" parent="aWx8BJQIt_AAFOSle3Xr-22">
          <mxGeometry y="120" width="650" height="40" as="geometry" />
        </mxCell>
        <mxCell id="4jwVBDrUsGqLuniRPu5o-22" value="Trigger" style="shape=partialRectangle;html=1;whiteSpace=wrap;connectable=0;strokeColor=inherit;overflow=hidden;fillColor=none;top=0;left=0;bottom=0;right=0;pointerEvents=1;fontStyle=1" vertex="1" parent="4jwVBDrUsGqLuniRPu5o-21">
          <mxGeometry width="110" height="40" as="geometry">
            <mxRectangle width="110" height="40" as="alternateBounds" />
          </mxGeometry>
        </mxCell>
        <mxCell id="4jwVBDrUsGqLuniRPu5o-23" value="&lt;div align=&quot;center&quot;&gt;The user wants to log in to the page to use the provided web services.&lt;/div&gt;" style="shape=partialRectangle;html=1;whiteSpace=wrap;connectable=0;strokeColor=inherit;overflow=hidden;fillColor=none;top=0;left=0;bottom=0;right=0;pointerEvents=1;rowspan=1;colspan=3;align=center;spacingLeft=0;spacing=2;spacingRight=0;spacingBottom=0;spacingTop=0;" vertex="1" parent="4jwVBDrUsGqLuniRPu5o-21">
          <mxGeometry x="110" width="540" height="40" as="geometry">
            <mxRectangle width="70" height="40" as="alternateBounds" />
          </mxGeometry>
        </mxCell>
        <mxCell id="4jwVBDrUsGqLuniRPu5o-24" style="shape=partialRectangle;html=1;whiteSpace=wrap;connectable=0;strokeColor=inherit;overflow=hidden;fillColor=none;top=0;left=0;bottom=0;right=0;pointerEvents=1;" vertex="1" visible="0" parent="4jwVBDrUsGqLuniRPu5o-21">
          <mxGeometry x="180" width="100" height="40" as="geometry">
            <mxRectangle width="100" height="40" as="alternateBounds" />
          </mxGeometry>
        </mxCell>
        <mxCell id="4jwVBDrUsGqLuniRPu5o-25" style="shape=partialRectangle;html=1;whiteSpace=wrap;connectable=0;strokeColor=inherit;overflow=hidden;fillColor=none;top=0;left=0;bottom=0;right=0;pointerEvents=1;" vertex="1" visible="0" parent="4jwVBDrUsGqLuniRPu5o-21">
          <mxGeometry x="280" width="370" height="40" as="geometry">
            <mxRectangle width="370" height="40" as="alternateBounds" />
          </mxGeometry>
        </mxCell>
        <mxCell id="aWx8BJQIt_AAFOSle3Xr-33" value="" style="shape=tableRow;horizontal=0;startSize=0;swimlaneHead=0;swimlaneBody=0;strokeColor=inherit;top=0;left=0;bottom=0;right=0;collapsible=0;dropTarget=0;fillColor=none;points=[[0,0.5],[1,0.5]];portConstraint=eastwest;" parent="aWx8BJQIt_AAFOSle3Xr-22" vertex="1">
          <mxGeometry y="160" width="650" height="40" as="geometry" />
        </mxCell>
        <mxCell id="aWx8BJQIt_AAFOSle3Xr-34" value="Pre-Condition" style="shape=partialRectangle;html=1;whiteSpace=wrap;connectable=0;strokeColor=inherit;overflow=hidden;fillColor=none;top=0;left=0;bottom=0;right=0;pointerEvents=1;fontStyle=1" parent="aWx8BJQIt_AAFOSle3Xr-33" vertex="1">
          <mxGeometry width="110" height="40" as="geometry">
            <mxRectangle width="110" height="40" as="alternateBounds" />
          </mxGeometry>
        </mxCell>
        <mxCell id="aWx8BJQIt_AAFOSle3Xr-35" value="&lt;div align=&quot;center&quot;&gt;None&lt;/div&gt;" style="shape=partialRectangle;html=1;whiteSpace=wrap;connectable=0;strokeColor=inherit;overflow=hidden;fillColor=none;top=0;left=0;bottom=0;right=0;pointerEvents=1;rowspan=1;colspan=3;align=center;spacingLeft=0;spacing=2;spacingRight=0;spacingBottom=0;spacingTop=0;" parent="aWx8BJQIt_AAFOSle3Xr-33" vertex="1">
          <mxGeometry x="110" width="540" height="40" as="geometry">
            <mxRectangle width="70" height="40" as="alternateBounds" />
          </mxGeometry>
        </mxCell>
        <mxCell id="aWx8BJQIt_AAFOSle3Xr-36" value="" style="shape=partialRectangle;html=1;whiteSpace=wrap;connectable=0;strokeColor=inherit;overflow=hidden;fillColor=none;top=0;left=0;bottom=0;right=0;pointerEvents=1;" parent="aWx8BJQIt_AAFOSle3Xr-33" vertex="1" visible="0">
          <mxGeometry x="180" width="100" height="40" as="geometry">
            <mxRectangle width="100" height="40" as="alternateBounds" />
          </mxGeometry>
        </mxCell>
        <mxCell id="aWx8BJQIt_AAFOSle3Xr-37" value="" style="shape=partialRectangle;html=1;whiteSpace=wrap;connectable=0;strokeColor=inherit;overflow=hidden;fillColor=none;top=0;left=0;bottom=0;right=0;pointerEvents=1;" parent="aWx8BJQIt_AAFOSle3Xr-33" vertex="1" visible="0">
          <mxGeometry x="280" width="370" height="40" as="geometry">
            <mxRectangle width="370" height="40" as="alternateBounds" />
          </mxGeometry>
        </mxCell>
        <mxCell id="4jwVBDrUsGqLuniRPu5o-16" style="shape=tableRow;horizontal=0;startSize=0;swimlaneHead=0;swimlaneBody=0;strokeColor=inherit;top=0;left=0;bottom=0;right=0;collapsible=0;dropTarget=0;fillColor=none;points=[[0,0.5],[1,0.5]];portConstraint=eastwest;" vertex="1" parent="aWx8BJQIt_AAFOSle3Xr-22">
          <mxGeometry y="200" width="650" height="70" as="geometry" />
        </mxCell>
        <mxCell id="4jwVBDrUsGqLuniRPu5o-17" value="&lt;div&gt;Post-Condition&lt;/div&gt;" style="shape=partialRectangle;html=1;whiteSpace=wrap;connectable=0;strokeColor=inherit;overflow=hidden;fillColor=none;top=0;left=0;bottom=0;right=0;pointerEvents=1;fontStyle=1" vertex="1" parent="4jwVBDrUsGqLuniRPu5o-16">
          <mxGeometry width="110" height="70" as="geometry">
            <mxRectangle width="110" height="70" as="alternateBounds" />
          </mxGeometry>
        </mxCell>
        <mxCell id="4jwVBDrUsGqLuniRPu5o-18" value="&lt;div style=&quot;line-height: 160%;&quot;&gt;&lt;ul&gt;&lt;li&gt;A valid session/auth‑token is created&lt;i&gt;&amp;nbsp;&lt;/i&gt;base&lt;em&gt;d&lt;/em&gt; on the account&#39;s type&amp;nbsp;&lt;/li&gt;&lt;li&gt;The actor is flagged as &lt;em data-start=&quot;453&quot; data-end=&quot;468&quot;&gt;authenticated&lt;/em&gt;, redirected to the appropriate start page.&lt;/li&gt;&lt;/ul&gt;&lt;/div&gt;" style="shape=partialRectangle;html=1;whiteSpace=wrap;connectable=0;strokeColor=inherit;overflow=hidden;fillColor=none;top=0;left=0;bottom=0;right=0;pointerEvents=1;rowspan=1;colspan=3;align=left;spacingLeft=10;spacing=0;" vertex="1" parent="4jwVBDrUsGqLuniRPu5o-16">
          <mxGeometry x="110" width="540" height="70" as="geometry">
            <mxRectangle width="70" height="70" as="alternateBounds" />
          </mxGeometry>
        </mxCell>
        <mxCell id="4jwVBDrUsGqLuniRPu5o-19" style="shape=partialRectangle;html=1;whiteSpace=wrap;connectable=0;strokeColor=inherit;overflow=hidden;fillColor=none;top=0;left=0;bottom=0;right=0;pointerEvents=1;" vertex="1" visible="0" parent="4jwVBDrUsGqLuniRPu5o-16">
          <mxGeometry x="180" width="100" height="70" as="geometry">
            <mxRectangle width="100" height="70" as="alternateBounds" />
          </mxGeometry>
        </mxCell>
        <mxCell id="4jwVBDrUsGqLuniRPu5o-20" style="shape=partialRectangle;html=1;whiteSpace=wrap;connectable=0;strokeColor=inherit;overflow=hidden;fillColor=none;top=0;left=0;bottom=0;right=0;pointerEvents=1;" vertex="1" visible="0" parent="4jwVBDrUsGqLuniRPu5o-16">
          <mxGeometry x="280" width="370" height="70" as="geometry">
            <mxRectangle width="370" height="70" as="alternateBounds" />
          </mxGeometry>
        </mxCell>
        <mxCell id="aWx8BJQIt_AAFOSle3Xr-38" value="" style="shape=tableRow;horizontal=0;startSize=0;swimlaneHead=0;swimlaneBody=0;strokeColor=inherit;top=0;left=0;bottom=0;right=0;collapsible=0;dropTarget=0;fillColor=none;points=[[0,0.5],[1,0.5]];portConstraint=eastwest;" parent="aWx8BJQIt_AAFOSle3Xr-22" vertex="1">
          <mxGeometry y="270" width="650" height="40" as="geometry" />
        </mxCell>
        <mxCell id="aWx8BJQIt_AAFOSle3Xr-39" value="Basic Flow" style="shape=partialRectangle;html=1;whiteSpace=wrap;connectable=0;strokeColor=inherit;overflow=hidden;fillColor=none;top=0;left=0;bottom=0;right=0;pointerEvents=1;rowspan=7;colspan=1;fontStyle=1" parent="aWx8BJQIt_AAFOSle3Xr-38" vertex="1">
          <mxGeometry width="110" height="280" as="geometry">
            <mxRectangle width="110" height="40" as="alternateBounds" />
          </mxGeometry>
        </mxCell>
        <mxCell id="aWx8BJQIt_AAFOSle3Xr-40" value="Step" style="shape=partialRectangle;html=1;whiteSpace=wrap;connectable=0;strokeColor=inherit;overflow=hidden;fillColor=none;top=0;left=0;bottom=0;right=0;pointerEvents=1;" parent="aWx8BJQIt_AAFOSle3Xr-38" vertex="1">
          <mxGeometry x="110" width="70" height="40" as="geometry">
            <mxRectangle width="70" height="40" as="alternateBounds" />
          </mxGeometry>
        </mxCell>
        <mxCell id="aWx8BJQIt_AAFOSle3Xr-41" value="Performed by" style="shape=partialRectangle;html=1;whiteSpace=wrap;connectable=0;strokeColor=inherit;overflow=hidden;fillColor=none;top=0;left=0;bottom=0;right=0;pointerEvents=1;" parent="aWx8BJQIt_AAFOSle3Xr-38" vertex="1">
          <mxGeometry x="180" width="100" height="40" as="geometry">
            <mxRectangle width="100" height="40" as="alternateBounds" />
          </mxGeometry>
        </mxCell>
        <mxCell id="aWx8BJQIt_AAFOSle3Xr-42" value="Action" style="shape=partialRectangle;html=1;whiteSpace=wrap;connectable=0;strokeColor=inherit;overflow=hidden;fillColor=none;top=0;left=0;bottom=0;right=0;pointerEvents=1;" parent="aWx8BJQIt_AAFOSle3Xr-38" vertex="1">
          <mxGeometry x="280" width="370" height="40" as="geometry">
            <mxRectangle width="370" height="40" as="alternateBounds" />
          </mxGeometry>
        </mxCell>
        <mxCell id="aWx8BJQIt_AAFOSle3Xr-43" value="" style="shape=tableRow;horizontal=0;startSize=0;swimlaneHead=0;swimlaneBody=0;strokeColor=inherit;top=0;left=0;bottom=0;right=0;collapsible=0;dropTarget=0;fillColor=none;points=[[0,0.5],[1,0.5]];portConstraint=eastwest;" parent="aWx8BJQIt_AAFOSle3Xr-22" vertex="1">
          <mxGeometry y="310" width="650" height="40" as="geometry" />
        </mxCell>
        <mxCell id="aWx8BJQIt_AAFOSle3Xr-44" value="" style="shape=partialRectangle;html=1;whiteSpace=wrap;connectable=0;strokeColor=inherit;overflow=hidden;fillColor=none;top=0;left=0;bottom=0;right=0;pointerEvents=1;" parent="aWx8BJQIt_AAFOSle3Xr-43" vertex="1" visible="0">
          <mxGeometry width="110" height="40" as="geometry">
            <mxRectangle width="110" height="40" as="alternateBounds" />
          </mxGeometry>
        </mxCell>
        <mxCell id="aWx8BJQIt_AAFOSle3Xr-45" value="1" style="shape=partialRectangle;html=1;whiteSpace=wrap;connectable=0;strokeColor=inherit;overflow=hidden;fillColor=none;top=0;left=0;bottom=0;right=0;pointerEvents=1;" parent="aWx8BJQIt_AAFOSle3Xr-43" vertex="1">
          <mxGeometry x="110" width="70" height="40" as="geometry">
            <mxRectangle width="70" height="40" as="alternateBounds" />
          </mxGeometry>
        </mxCell>
        <mxCell id="aWx8BJQIt_AAFOSle3Xr-46" value="User" style="shape=partialRectangle;html=1;whiteSpace=wrap;connectable=0;strokeColor=inherit;overflow=hidden;fillColor=none;top=0;left=0;bottom=0;right=0;pointerEvents=1;" parent="aWx8BJQIt_AAFOSle3Xr-43" vertex="1">
          <mxGeometry x="180" width="100" height="40" as="geometry">
            <mxRectangle width="100" height="40" as="alternateBounds" />
          </mxGeometry>
        </mxCell>
        <mxCell id="aWx8BJQIt_AAFOSle3Xr-47" value="Selects the Login function" style="shape=partialRectangle;html=1;whiteSpace=wrap;connectable=0;strokeColor=inherit;overflow=hidden;fillColor=none;top=0;left=0;bottom=0;right=0;pointerEvents=1;" parent="aWx8BJQIt_AAFOSle3Xr-43" vertex="1">
          <mxGeometry x="280" width="370" height="40" as="geometry">
            <mxRectangle width="370" height="40" as="alternateBounds" />
          </mxGeometry>
        </mxCell>
        <mxCell id="aWx8BJQIt_AAFOSle3Xr-48" value="" style="shape=tableRow;horizontal=0;startSize=0;swimlaneHead=0;swimlaneBody=0;strokeColor=inherit;top=0;left=0;bottom=0;right=0;collapsible=0;dropTarget=0;fillColor=none;points=[[0,0.5],[1,0.5]];portConstraint=eastwest;" parent="aWx8BJQIt_AAFOSle3Xr-22" vertex="1">
          <mxGeometry y="350" width="650" height="40" as="geometry" />
        </mxCell>
        <mxCell id="aWx8BJQIt_AAFOSle3Xr-49" value="" style="shape=partialRectangle;html=1;whiteSpace=wrap;connectable=0;strokeColor=inherit;overflow=hidden;fillColor=none;top=0;left=0;bottom=0;right=0;pointerEvents=1;" parent="aWx8BJQIt_AAFOSle3Xr-48" vertex="1" visible="0">
          <mxGeometry width="110" height="40" as="geometry">
            <mxRectangle width="110" height="40" as="alternateBounds" />
          </mxGeometry>
        </mxCell>
        <mxCell id="aWx8BJQIt_AAFOSle3Xr-50" value="2" style="shape=partialRectangle;html=1;whiteSpace=wrap;connectable=0;strokeColor=inherit;overflow=hidden;fillColor=none;top=0;left=0;bottom=0;right=0;pointerEvents=1;" parent="aWx8BJQIt_AAFOSle3Xr-48" vertex="1">
          <mxGeometry x="110" width="70" height="40" as="geometry">
            <mxRectangle width="70" height="40" as="alternateBounds" />
          </mxGeometry>
        </mxCell>
        <mxCell id="aWx8BJQIt_AAFOSle3Xr-51" value="System" style="shape=partialRectangle;html=1;whiteSpace=wrap;connectable=0;strokeColor=inherit;overflow=hidden;fillColor=none;top=0;left=0;bottom=0;right=0;pointerEvents=1;" parent="aWx8BJQIt_AAFOSle3Xr-48" vertex="1">
          <mxGeometry x="180" width="100" height="40" as="geometry">
            <mxRectangle width="100" height="40" as="alternateBounds" />
          </mxGeometry>
        </mxCell>
        <mxCell id="aWx8BJQIt_AAFOSle3Xr-52" value="Displays login screen" style="shape=partialRectangle;html=1;whiteSpace=wrap;connectable=0;strokeColor=inherit;overflow=hidden;fillColor=none;top=0;left=0;bottom=0;right=0;pointerEvents=1;" parent="aWx8BJQIt_AAFOSle3Xr-48" vertex="1">
          <mxGeometry x="280" width="370" height="40" as="geometry">
            <mxRectangle width="370" height="40" as="alternateBounds" />
          </mxGeometry>
        </mxCell>
        <mxCell id="aWx8BJQIt_AAFOSle3Xr-53" value="" style="shape=tableRow;horizontal=0;startSize=0;swimlaneHead=0;swimlaneBody=0;strokeColor=inherit;top=0;left=0;bottom=0;right=0;collapsible=0;dropTarget=0;fillColor=none;points=[[0,0.5],[1,0.5]];portConstraint=eastwest;" parent="aWx8BJQIt_AAFOSle3Xr-22" vertex="1">
          <mxGeometry y="390" width="650" height="40" as="geometry" />
        </mxCell>
        <mxCell id="aWx8BJQIt_AAFOSle3Xr-54" value="" style="shape=partialRectangle;html=1;whiteSpace=wrap;connectable=0;strokeColor=inherit;overflow=hidden;fillColor=none;top=0;left=0;bottom=0;right=0;pointerEvents=1;" parent="aWx8BJQIt_AAFOSle3Xr-53" vertex="1" visible="0">
          <mxGeometry width="110" height="40" as="geometry">
            <mxRectangle width="110" height="40" as="alternateBounds" />
          </mxGeometry>
        </mxCell>
        <mxCell id="aWx8BJQIt_AAFOSle3Xr-55" value="3" style="shape=partialRectangle;html=1;whiteSpace=wrap;connectable=0;strokeColor=inherit;overflow=hidden;fillColor=none;top=0;left=0;bottom=0;right=0;pointerEvents=1;" parent="aWx8BJQIt_AAFOSle3Xr-53" vertex="1">
          <mxGeometry x="110" width="70" height="40" as="geometry">
            <mxRectangle width="70" height="40" as="alternateBounds" />
          </mxGeometry>
        </mxCell>
        <mxCell id="aWx8BJQIt_AAFOSle3Xr-56" value="User" style="shape=partialRectangle;html=1;whiteSpace=wrap;connectable=0;strokeColor=inherit;overflow=hidden;fillColor=none;top=0;left=0;bottom=0;right=0;pointerEvents=1;" parent="aWx8BJQIt_AAFOSle3Xr-53" vertex="1">
          <mxGeometry x="180" width="100" height="40" as="geometry">
            <mxRectangle width="100" height="40" as="alternateBounds" />
          </mxGeometry>
        </mxCell>
        <mxCell id="aWx8BJQIt_AAFOSle3Xr-57" value="Enters email and password" style="shape=partialRectangle;html=1;whiteSpace=wrap;connectable=0;strokeColor=inherit;overflow=hidden;fillColor=none;top=0;left=0;bottom=0;right=0;pointerEvents=1;" parent="aWx8BJQIt_AAFOSle3Xr-53" vertex="1">
          <mxGeometry x="280" width="370" height="40" as="geometry">
            <mxRectangle width="370" height="40" as="alternateBounds" />
          </mxGeometry>
        </mxCell>
        <mxCell id="aWx8BJQIt_AAFOSle3Xr-58" value="" style="shape=tableRow;horizontal=0;startSize=0;swimlaneHead=0;swimlaneBody=0;strokeColor=inherit;top=0;left=0;bottom=0;right=0;collapsible=0;dropTarget=0;fillColor=none;points=[[0,0.5],[1,0.5]];portConstraint=eastwest;" parent="aWx8BJQIt_AAFOSle3Xr-22" vertex="1">
          <mxGeometry y="430" width="650" height="40" as="geometry" />
        </mxCell>
        <mxCell id="aWx8BJQIt_AAFOSle3Xr-59" value="" style="shape=partialRectangle;html=1;whiteSpace=wrap;connectable=0;strokeColor=inherit;overflow=hidden;fillColor=none;top=0;left=0;bottom=0;right=0;pointerEvents=1;" parent="aWx8BJQIt_AAFOSle3Xr-58" vertex="1" visible="0">
          <mxGeometry width="110" height="40" as="geometry">
            <mxRectangle width="110" height="40" as="alternateBounds" />
          </mxGeometry>
        </mxCell>
        <mxCell id="aWx8BJQIt_AAFOSle3Xr-60" value="4" style="shape=partialRectangle;html=1;whiteSpace=wrap;connectable=0;strokeColor=inherit;overflow=hidden;fillColor=none;top=0;left=0;bottom=0;right=0;pointerEvents=1;" parent="aWx8BJQIt_AAFOSle3Xr-58" vertex="1">
          <mxGeometry x="110" width="70" height="40" as="geometry">
            <mxRectangle width="70" height="40" as="alternateBounds" />
          </mxGeometry>
        </mxCell>
        <mxCell id="aWx8BJQIt_AAFOSle3Xr-61" value="User" style="shape=partialRectangle;html=1;whiteSpace=wrap;connectable=0;strokeColor=inherit;overflow=hidden;fillColor=none;top=0;left=0;bottom=0;right=0;pointerEvents=1;" parent="aWx8BJQIt_AAFOSle3Xr-58" vertex="1">
          <mxGeometry x="180" width="100" height="40" as="geometry">
            <mxRectangle width="100" height="40" as="alternateBounds" />
          </mxGeometry>
        </mxCell>
        <mxCell id="aWx8BJQIt_AAFOSle3Xr-62" value="Presses Login button" style="shape=partialRectangle;html=1;whiteSpace=wrap;connectable=0;strokeColor=inherit;overflow=hidden;fillColor=none;top=0;left=0;bottom=0;right=0;pointerEvents=1;" parent="aWx8BJQIt_AAFOSle3Xr-58" vertex="1">
          <mxGeometry x="280" width="370" height="40" as="geometry">
            <mxRectangle width="370" height="40" as="alternateBounds" />
          </mxGeometry>
        </mxCell>
        <mxCell id="aWx8BJQIt_AAFOSle3Xr-63" value="" style="shape=tableRow;horizontal=0;startSize=0;swimlaneHead=0;swimlaneBody=0;strokeColor=inherit;top=0;left=0;bottom=0;right=0;collapsible=0;dropTarget=0;fillColor=none;points=[[0,0.5],[1,0.5]];portConstraint=eastwest;" parent="aWx8BJQIt_AAFOSle3Xr-22" vertex="1">
          <mxGeometry y="470" width="650" height="40" as="geometry" />
        </mxCell>
        <mxCell id="aWx8BJQIt_AAFOSle3Xr-64" value="" style="shape=partialRectangle;html=1;whiteSpace=wrap;connectable=0;strokeColor=inherit;overflow=hidden;fillColor=none;top=0;left=0;bottom=0;right=0;pointerEvents=1;" parent="aWx8BJQIt_AAFOSle3Xr-63" vertex="1" visible="0">
          <mxGeometry width="110" height="40" as="geometry">
            <mxRectangle width="110" height="40" as="alternateBounds" />
          </mxGeometry>
        </mxCell>
        <mxCell id="aWx8BJQIt_AAFOSle3Xr-65" value="5" style="shape=partialRectangle;html=1;whiteSpace=wrap;connectable=0;strokeColor=inherit;overflow=hidden;fillColor=none;top=0;left=0;bottom=0;right=0;pointerEvents=1;" parent="aWx8BJQIt_AAFOSle3Xr-63" vertex="1">
          <mxGeometry x="110" width="70" height="40" as="geometry">
            <mxRectangle width="70" height="40" as="alternateBounds" />
          </mxGeometry>
        </mxCell>
        <mxCell id="aWx8BJQIt_AAFOSle3Xr-66" value="&lt;table&gt;&lt;tbody&gt;&lt;tr&gt;&lt;td data-end=&quot;998&quot; data-start=&quot;991&quot; class=&quot;max-w-[calc(var(--thread-content-max-width)*2/3)]&quot;&gt;&lt;/td&gt;&lt;/tr&gt;&lt;/tbody&gt;&lt;/table&gt;&lt;table&gt;&lt;tbody&gt;&lt;tr&gt;&lt;td data-end=&quot;1013&quot; data-start=&quot;998&quot; class=&quot;max-w-[calc(var(--thread-content-max-width)*2/3)]&quot;&gt;System&lt;/td&gt;&lt;/tr&gt;&lt;/tbody&gt;&lt;/table&gt;" style="shape=partialRectangle;html=1;whiteSpace=wrap;connectable=0;strokeColor=inherit;overflow=hidden;fillColor=none;top=0;left=0;bottom=0;right=0;pointerEvents=1;" parent="aWx8BJQIt_AAFOSle3Xr-63" vertex="1">
          <mxGeometry x="180" width="100" height="40" as="geometry">
            <mxRectangle width="100" height="40" as="alternateBounds" />
          </mxGeometry>
        </mxCell>
        <mxCell id="aWx8BJQIt_AAFOSle3Xr-67" value="Validates credentials and either logs in or rejects login" style="shape=partialRectangle;html=1;whiteSpace=wrap;connectable=0;strokeColor=inherit;overflow=hidden;fillColor=none;top=0;left=0;bottom=0;right=0;pointerEvents=1;" parent="aWx8BJQIt_AAFOSle3Xr-63" vertex="1">
          <mxGeometry x="280" width="370" height="40" as="geometry">
            <mxRectangle width="370" height="40" as="alternateBounds" />
          </mxGeometry>
        </mxCell>
        <mxCell id="aWx8BJQIt_AAFOSle3Xr-68" value="" style="shape=tableRow;horizontal=0;startSize=0;swimlaneHead=0;swimlaneBody=0;strokeColor=inherit;top=0;left=0;bottom=0;right=0;collapsible=0;dropTarget=0;fillColor=none;points=[[0,0.5],[1,0.5]];portConstraint=eastwest;" parent="aWx8BJQIt_AAFOSle3Xr-22" vertex="1">
          <mxGeometry y="510" width="650" height="40" as="geometry" />
        </mxCell>
        <mxCell id="aWx8BJQIt_AAFOSle3Xr-69" value="" style="shape=partialRectangle;html=1;whiteSpace=wrap;connectable=0;strokeColor=inherit;overflow=hidden;fillColor=none;top=0;left=0;bottom=0;right=0;pointerEvents=1;" parent="aWx8BJQIt_AAFOSle3Xr-68" vertex="1" visible="0">
          <mxGeometry width="110" height="40" as="geometry">
            <mxRectangle width="110" height="40" as="alternateBounds" />
          </mxGeometry>
        </mxCell>
        <mxCell id="aWx8BJQIt_AAFOSle3Xr-70" value="6" style="shape=partialRectangle;html=1;whiteSpace=wrap;connectable=0;strokeColor=inherit;overflow=hidden;fillColor=none;top=0;left=0;bottom=0;right=0;pointerEvents=1;" parent="aWx8BJQIt_AAFOSle3Xr-68" vertex="1">
          <mxGeometry x="110" width="70" height="40" as="geometry">
            <mxRectangle width="70" height="40" as="alternateBounds" />
          </mxGeometry>
        </mxCell>
        <mxCell id="aWx8BJQIt_AAFOSle3Xr-71" value="&lt;table&gt;&lt;tbody&gt;&lt;tr&gt;&lt;td data-end=&quot;998&quot; data-start=&quot;991&quot; class=&quot;max-w-[calc(var(--thread-content-max-width)*2/3)]&quot;&gt;&lt;/td&gt;&lt;/tr&gt;&lt;/tbody&gt;&lt;/table&gt;&lt;table&gt;&lt;tbody&gt;&lt;tr&gt;&lt;td data-end=&quot;1013&quot; data-start=&quot;998&quot; class=&quot;max-w-[calc(var(--thread-content-max-width)*2/3)]&quot;&gt;System&lt;/td&gt;&lt;/tr&gt;&lt;/tbody&gt;&lt;/table&gt;" style="shape=partialRectangle;html=1;whiteSpace=wrap;connectable=0;strokeColor=inherit;overflow=hidden;fillColor=none;top=0;left=0;bottom=0;right=0;pointerEvents=1;" parent="aWx8BJQIt_AAFOSle3Xr-68" vertex="1">
          <mxGeometry x="180" width="100" height="40" as="geometry">
            <mxRectangle width="100" height="40" as="alternateBounds" />
          </mxGeometry>
        </mxCell>
        <mxCell id="aWx8BJQIt_AAFOSle3Xr-72" value="Displays &quot;Login successful&quot; and redirects to homepage" style="shape=partialRectangle;html=1;whiteSpace=wrap;connectable=0;strokeColor=inherit;overflow=hidden;fillColor=none;top=0;left=0;bottom=0;right=0;pointerEvents=1;" parent="aWx8BJQIt_AAFOSle3Xr-68" vertex="1">
          <mxGeometry x="280" width="370" height="40" as="geometry">
            <mxRectangle width="370" height="40" as="alternateBounds" />
          </mxGeometry>
        </mxCell>
        <mxCell id="aWx8BJQIt_AAFOSle3Xr-73" value="" style="shape=tableRow;horizontal=0;startSize=0;swimlaneHead=0;swimlaneBody=0;strokeColor=inherit;top=0;left=0;bottom=0;right=0;collapsible=0;dropTarget=0;fillColor=none;points=[[0,0.5],[1,0.5]];portConstraint=eastwest;" parent="aWx8BJQIt_AAFOSle3Xr-22" vertex="1">
          <mxGeometry y="550" width="650" height="40" as="geometry" />
        </mxCell>
        <mxCell id="aWx8BJQIt_AAFOSle3Xr-74" value="&lt;strong&gt;Exception Flow&lt;/strong&gt;" style="shape=partialRectangle;html=1;whiteSpace=wrap;connectable=0;strokeColor=inherit;overflow=hidden;fillColor=none;top=0;left=0;bottom=0;right=0;pointerEvents=1;rowspan=3;colspan=1;" parent="aWx8BJQIt_AAFOSle3Xr-73" vertex="1">
          <mxGeometry width="110" height="120" as="geometry">
            <mxRectangle width="110" height="40" as="alternateBounds" />
          </mxGeometry>
        </mxCell>
        <mxCell id="aWx8BJQIt_AAFOSle3Xr-75" value="5a" style="shape=partialRectangle;html=1;whiteSpace=wrap;connectable=0;strokeColor=inherit;overflow=hidden;fillColor=none;top=0;left=0;bottom=0;right=0;pointerEvents=1;" parent="aWx8BJQIt_AAFOSle3Xr-73" vertex="1">
          <mxGeometry x="110" width="70" height="40" as="geometry">
            <mxRectangle width="70" height="40" as="alternateBounds" />
          </mxGeometry>
        </mxCell>
        <mxCell id="aWx8BJQIt_AAFOSle3Xr-76" value="System" style="shape=partialRectangle;html=1;whiteSpace=wrap;connectable=0;strokeColor=inherit;overflow=hidden;fillColor=none;top=0;left=0;bottom=0;right=0;pointerEvents=1;" parent="aWx8BJQIt_AAFOSle3Xr-73" vertex="1">
          <mxGeometry x="180" width="100" height="40" as="geometry">
            <mxRectangle width="100" height="40" as="alternateBounds" />
          </mxGeometry>
        </mxCell>
        <mxCell id="aWx8BJQIt_AAFOSle3Xr-77" value="If login fails: system displays error message for invalid credentials" style="shape=partialRectangle;html=1;whiteSpace=wrap;connectable=0;strokeColor=inherit;overflow=hidden;fillColor=none;top=0;left=0;bottom=0;right=0;pointerEvents=1;" parent="aWx8BJQIt_AAFOSle3Xr-73" vertex="1">
          <mxGeometry x="280" width="370" height="40" as="geometry">
            <mxRectangle width="370" height="40" as="alternateBounds" />
          </mxGeometry>
        </mxCell>
        <mxCell id="aWx8BJQIt_AAFOSle3Xr-78" value="" style="shape=tableRow;horizontal=0;startSize=0;swimlaneHead=0;swimlaneBody=0;strokeColor=inherit;top=0;left=0;bottom=0;right=0;collapsible=0;dropTarget=0;fillColor=none;points=[[0,0.5],[1,0.5]];portConstraint=eastwest;" parent="aWx8BJQIt_AAFOSle3Xr-22" vertex="1">
          <mxGeometry y="590" width="650" height="40" as="geometry" />
        </mxCell>
        <mxCell id="aWx8BJQIt_AAFOSle3Xr-79" value="" style="shape=partialRectangle;html=1;whiteSpace=wrap;connectable=0;strokeColor=inherit;overflow=hidden;fillColor=none;top=0;left=0;bottom=0;right=0;pointerEvents=1;" parent="aWx8BJQIt_AAFOSle3Xr-78" vertex="1" visible="0">
          <mxGeometry width="110" height="40" as="geometry">
            <mxRectangle width="110" height="40" as="alternateBounds" />
          </mxGeometry>
        </mxCell>
        <mxCell id="aWx8BJQIt_AAFOSle3Xr-80" value="6a" style="shape=partialRectangle;html=1;whiteSpace=wrap;connectable=0;strokeColor=inherit;overflow=hidden;fillColor=none;top=0;left=0;bottom=0;right=0;pointerEvents=1;" parent="aWx8BJQIt_AAFOSle3Xr-78" vertex="1">
          <mxGeometry x="110" width="70" height="40" as="geometry">
            <mxRectangle width="70" height="40" as="alternateBounds" />
          </mxGeometry>
        </mxCell>
        <mxCell id="aWx8BJQIt_AAFOSle3Xr-81" value="System" style="shape=partialRectangle;html=1;whiteSpace=wrap;connectable=0;strokeColor=inherit;overflow=hidden;fillColor=none;top=0;left=0;bottom=0;right=0;pointerEvents=1;" parent="aWx8BJQIt_AAFOSle3Xr-78" vertex="1">
          <mxGeometry x="180" width="100" height="40" as="geometry">
            <mxRectangle width="100" height="40" as="alternateBounds" />
          </mxGeometry>
        </mxCell>
        <mxCell id="aWx8BJQIt_AAFOSle3Xr-82" value="If email does not exist: system notifies user that email is incorrect" style="shape=partialRectangle;html=1;whiteSpace=wrap;connectable=0;strokeColor=inherit;overflow=hidden;fillColor=none;top=0;left=0;bottom=0;right=0;pointerEvents=1;" parent="aWx8BJQIt_AAFOSle3Xr-78" vertex="1">
          <mxGeometry x="280" width="370" height="40" as="geometry">
            <mxRectangle width="370" height="40" as="alternateBounds" />
          </mxGeometry>
        </mxCell>
        <mxCell id="aWx8BJQIt_AAFOSle3Xr-83" value="" style="shape=tableRow;horizontal=0;startSize=0;swimlaneHead=0;swimlaneBody=0;strokeColor=inherit;top=0;left=0;bottom=0;right=0;collapsible=0;dropTarget=0;fillColor=none;points=[[0,0.5],[1,0.5]];portConstraint=eastwest;" parent="aWx8BJQIt_AAFOSle3Xr-22" vertex="1">
          <mxGeometry y="630" width="650" height="40" as="geometry" />
        </mxCell>
        <mxCell id="aWx8BJQIt_AAFOSle3Xr-84" value="" style="shape=partialRectangle;html=1;whiteSpace=wrap;connectable=0;strokeColor=inherit;overflow=hidden;fillColor=none;top=0;left=0;bottom=0;right=0;pointerEvents=1;" parent="aWx8BJQIt_AAFOSle3Xr-83" vertex="1" visible="0">
          <mxGeometry width="110" height="40" as="geometry">
            <mxRectangle width="110" height="40" as="alternateBounds" />
          </mxGeometry>
        </mxCell>
        <mxCell id="aWx8BJQIt_AAFOSle3Xr-85" value="6b" style="shape=partialRectangle;html=1;whiteSpace=wrap;connectable=0;strokeColor=inherit;overflow=hidden;fillColor=none;top=0;left=0;bottom=0;right=0;pointerEvents=1;" parent="aWx8BJQIt_AAFOSle3Xr-83" vertex="1">
          <mxGeometry x="110" width="70" height="40" as="geometry">
            <mxRectangle width="70" height="40" as="alternateBounds" />
          </mxGeometry>
        </mxCell>
        <mxCell id="aWx8BJQIt_AAFOSle3Xr-86" value="System" style="shape=partialRectangle;html=1;whiteSpace=wrap;connectable=0;strokeColor=inherit;overflow=hidden;fillColor=none;top=0;left=0;bottom=0;right=0;pointerEvents=1;" parent="aWx8BJQIt_AAFOSle3Xr-83" vertex="1">
          <mxGeometry x="180" width="100" height="40" as="geometry">
            <mxRectangle width="100" height="40" as="alternateBounds" />
          </mxGeometry>
        </mxCell>
        <mxCell id="aWx8BJQIt_AAFOSle3Xr-87" value="If password is wrong, display &quot;Invalid password&quot; message" style="shape=partialRectangle;html=1;whiteSpace=wrap;connectable=0;strokeColor=inherit;overflow=hidden;fillColor=none;top=0;left=0;bottom=0;right=0;pointerEvents=1;" parent="aWx8BJQIt_AAFOSle3Xr-83" vertex="1">
          <mxGeometry x="280" width="370" height="40" as="geometry">
            <mxRectangle width="370" height="40" as="alternateBounds" />
          </mxGeometry>
        </mxCell>
      </root>
    </mxGraphModel>
  </diagram>
</mxfile>
